<svg width="42" height="42" viewBox="0 0 42 42" fill="none" xmlns="http://www.w3.org/2000/svg">
<path fill-rule="evenodd" clip-rule="evenodd" d="M11.9788 0.164993H30.0413C37.1038 0.164993 41.8329 5.12333 41.8329 12.4983V29.5212C41.8329 36.8754 37.1038 41.8317 30.0413 41.8317H11.9788C4.91626 41.8317 0.16626 36.8754 0.16626 29.5212V12.4983C0.16626 5.12333 4.91626 0.164993 11.9788 0.164993ZM20.9789 14.8754C19.9998 14.8754 19.1873 14.0609 19.1873 13.0629C19.1873 12.0421 19.9998 11.2296 21.0206 11.2296C22.0206 11.2296 22.8331 12.0421 22.8331 13.0629C22.8331 14.0609 22.0206 14.8754 20.9789 14.8754ZM22.8119 28.8754C22.8119 29.8754 21.9994 30.6879 20.9786 30.6879C19.9786 30.6879 19.1661 29.8754 19.1661 28.8754V19.667C19.1661 18.665 19.9786 17.8337 20.9786 17.8337C21.9994 17.8337 22.8119 18.665 22.8119 19.667V28.8754Z" fill="#008A09"/>
</svg>
