<svg width="50" height="50" viewBox="0 0 50 50" fill="none" xmlns="http://www.w3.org/2000/svg">
<path fill-rule="evenodd" clip-rule="evenodd" d="M42.5046 28.2919C43.2497 28.6877 43.8246 29.3127 44.2291 29.9377C45.0169 31.2294 44.953 32.8127 44.1865 34.2086L42.6962 36.7086C41.9084 38.0419 40.4394 38.8752 38.9277 38.8752C38.1825 38.8752 37.3522 38.6669 36.6709 38.2502C36.1173 37.8961 35.4786 37.7711 34.7973 37.7711C32.6895 37.7711 30.9224 39.5002 30.8585 41.5627C30.8585 43.9586 28.8998 45.8336 26.4513 45.8336H23.5558C21.086 45.8336 19.1273 43.9586 19.1273 41.5627C19.0847 39.5002 17.3176 37.7711 15.2098 37.7711C14.5072 37.7711 13.8685 37.8961 13.3362 38.2502C12.6549 38.6669 11.8033 38.8752 11.0794 38.8752C9.54643 38.8752 8.07737 38.0419 7.28961 36.7086L5.82055 34.2086C5.03279 32.8544 4.99021 31.2294 5.77797 29.9377C6.11862 29.3127 6.75734 28.6877 7.48123 28.2919C8.07737 28.0002 8.46061 27.5211 8.82255 26.9586C9.88709 25.1669 9.24836 22.8127 7.43865 21.7502C5.33086 20.5627 4.64956 17.9169 5.86313 15.8544L7.28961 13.3961C8.52448 11.3336 11.1645 10.6044 13.2936 11.8127C15.1459 12.8127 17.5518 12.1461 18.6376 10.3752C18.9782 9.79189 19.1699 9.16689 19.1273 8.54189C19.0847 7.72939 19.3189 6.95855 19.7234 6.33355C20.5112 5.04189 21.9377 4.20855 23.4919 4.16689H26.4939C28.0694 4.16689 29.4959 5.04189 30.2837 6.33355C30.6669 6.95855 30.9224 7.72939 30.8585 8.54189C30.8159 9.16689 31.0075 9.79189 31.3482 10.3752C32.434 12.1461 34.8399 12.8127 36.7135 11.8127C38.8213 10.6044 41.4826 11.3336 42.6962 13.3961L44.1227 15.8544C45.3575 17.9169 44.6762 20.5627 42.5471 21.7502C40.7374 22.8127 40.0987 25.1669 41.1845 26.9586C41.5252 27.5211 41.9084 28.0002 42.5046 28.2919ZM18.978 25.0211C18.978 28.2919 21.682 30.8961 25.0246 30.8961C28.3673 30.8961 31.0073 28.2919 31.0073 25.0211C31.0073 21.7502 28.3673 19.1252 25.0246 19.1252C21.682 19.1252 18.978 21.7502 18.978 25.0211Z" fill="#008A09"/>
</svg>
